<svg width="24" height="25" viewBox="0 0 24 25" fill="none" xmlns="http://www.w3.org/2000/svg">
<path d="M11.708 14.67C11.79 14.7567 11.8863 14.8 11.997 14.8C12.107 14.8 12.2053 14.7567 12.292 14.67L14.386 12.575C14.5107 12.4503 14.5407 12.3043 14.476 12.137C14.4113 11.969 14.2887 11.885 14.108 11.885H9.883C9.707 11.885 9.587 11.969 9.523 12.137C9.459 12.3043 9.489 12.4503 9.613 12.575L11.708 14.67ZM12.003 21.5C10.759 21.5 9.589 21.264 8.493 20.792C7.39767 20.3193 6.44467 19.678 5.634 18.868C4.82333 18.0587 4.18167 17.1067 3.709 16.012C3.23633 14.9173 3 13.7477 3 12.503C3 11.259 3.236 10.089 3.708 8.993C4.18067 7.89767 4.822 6.94467 5.632 6.134C6.44133 5.32333 7.39333 4.68167 8.488 4.209C9.58267 3.73633 10.7523 3.5 11.997 3.5C13.241 3.5 14.411 3.736 15.507 4.208C16.6023 4.68067 17.5553 5.322 18.366 6.132C19.1767 6.94133 19.8183 7.89333 20.291 8.988C20.7637 10.0827 21 11.2523 21 12.497C21 13.741 20.764 14.911 20.292 16.007C19.8193 17.1023 19.178 18.0553 18.368 18.866C17.5587 19.6767 16.6067 20.3183 15.512 20.791C14.4173 21.2637 13.2477 21.5 12.003 21.5Z" fill="#2E3788"/>
</svg>
